<?xml version="1.0" encoding="UTF-8" ?>
<!DOCTYPE svg PUBLIC "-//W3C//DTD SVG 1.1//EN" "http://www.w3.org/Graphics/SVG/1.1/DTD/svg11.dtd">
<svg width="57pt" height="40pt" viewBox="0 0 57 40" version="1.1" xmlns="http://www.w3.org/2000/svg">
<g id="#ff9200f7">
<path fill="#ff9200" opacity="0.97" d=" M 17.36 0.00 L 36.62 0.00 C 43.01 6.25 48.82 13.07 54.52 19.94 C 48.76 26.81 43.00 33.71 36.60 40.00 L 17.33 40.00 C 11.75 33.33 5.71 27.06 0.00 20.51 L 0.00 19.53 C 5.79 13.03 11.81 6.71 17.36 0.00 M 27.40 0.86 C 22.77 5.79 18.31 10.88 13.84 15.94 C 22.75 15.98 31.67 15.93 40.59 15.72 C 36.39 10.59 31.98 5.65 27.40 0.86 M 13.81 24.03 C 18.29 29.15 22.73 34.29 27.18 39.44 C 31.75 34.50 36.12 29.38 40.46 24.25 C 31.58 24.06 22.70 24.01 13.81 24.03 Z" />
</g>
</svg>
